<svg xmlns="http://www.w3.org/2000/svg" width="1242" height="2688" viewBox="0 0 1242 2688" fill="none">
  <rect width="1242" height="2688" fill="#08101D"/>
  <rect x="44" y="44" width="1154" height="2600" rx="56" fill="url(#bg)"/>
  <rect x="92" y="110" width="1058" height="172" rx="36" fill="rgba(255,255,255,0.05)" stroke="rgba(255,255,255,0.08)"/>
  <text x="136" y="176" fill="#EEF3FF" font-family="Arial, sans-serif" font-size="46" font-weight="700">Worship Admin</text>
  <text x="136" y="228" fill="#9AA7BF" font-family="Arial, sans-serif" font-size="24">Երգերի խմբագրում • թարմացումներ • սարքեր</text>
  <g fill="rgba(255,255,255,0.04)" stroke="rgba(255,255,255,0.06)">
    <rect x="92" y="330" width="344" height="180" rx="34"/>
    <rect x="449" y="330" width="344" height="180" rx="34"/>
    <rect x="806" y="330" width="344" height="180" rx="34"/>
  </g>
  <g font-family="Arial, sans-serif">
    <text x="132" y="402" fill="#EEF3FF" font-size="48" font-weight="700">2.7.0</text>
    <text x="132" y="444" fill="#9AA7BF" font-size="24">Ծրագրի տարբերակ</text>
    <text x="489" y="402" fill="#EEF3FF" font-size="48" font-weight="700">18</text>
    <text x="489" y="444" fill="#9AA7BF" font-size="24">Ակտիվ սարքեր</text>
    <text x="846" y="402" fill="#EEF3FF" font-size="48" font-weight="700">Միացված</text>
    <text x="846" y="444" fill="#9AA7BF" font-size="24">Push վիճակ</text>
  </g>
  <rect x="92" y="566" width="1058" height="1960" rx="42" fill="rgba(9,16,32,0.8)" stroke="rgba(255,255,255,0.07)"/>
  <rect x="132" y="616" width="976" height="94" rx="28" fill="rgba(255,255,255,0.05)"/>
  <rect x="152" y="636" width="300" height="54" rx="18" fill="#6B7CFF"/>
  <rect x="470" y="636" width="220" height="54" rx="18" fill="rgba(255,255,255,0.06)"/>
  <rect x="708" y="636" width="220" height="54" rx="18" fill="rgba(255,255,255,0.06)"/>
  <rect x="946" y="636" width="142" height="54" rx="18" fill="rgba(255,255,255,0.06)"/>
  <g fill="rgba(255,255,255,0.04)" stroke="rgba(255,255,255,0.05)">
    <rect x="132" y="766" width="976" height="252" rx="30"/>
    <rect x="132" y="1046" width="976" height="252" rx="30"/>
    <rect x="132" y="1326" width="976" height="252" rx="30"/>
    <rect x="132" y="1606" width="976" height="252" rx="30"/>
  </g>
  <text x="176" y="840" fill="#EEF3FF" font-family="Arial, sans-serif" font-size="34" font-weight="700">Թարմացում և տեղադրում</text>
  <text x="176" y="888" fill="#9AA7BF" font-family="Arial, sans-serif" font-size="22">Version, release summary, package publish</text>
  <text x="176" y="1120" fill="#EEF3FF" font-family="Arial, sans-serif" font-size="34" font-weight="700">Push ծանուցումներ</text>
  <text x="176" y="1400" fill="#EEF3FF" font-family="Arial, sans-serif" font-size="34" font-weight="700">Սարքեր</text>
  <text x="176" y="1680" fill="#EEF3FF" font-family="Arial, sans-serif" font-size="34" font-weight="700">Պատմություն</text>
  <defs>
    <linearGradient id="bg" x1="621" y1="44" x2="621" y2="2644" gradientUnits="userSpaceOnUse">
      <stop stop-color="#101833"/>
      <stop offset="1" stop-color="#08101D"/>
    </linearGradient>
  </defs>
</svg>
