<svg xmlns="http://www.w3.org/2000/svg" width="1600" height="900" viewBox="0 0 1600 900" fill="none">
  <rect width="1600" height="900" fill="#08101D"/>
  <rect x="36" y="36" width="1528" height="828" rx="34" fill="url(#bg)"/>
  <rect x="72" y="72" width="1456" height="86" rx="24" fill="rgba(255,255,255,0.05)" stroke="rgba(255,255,255,0.08)"/>
  <text x="118" y="126" fill="#EEF3FF" font-family="Arial, sans-serif" font-size="34" font-weight="700">Worship Admin Songs</text>
  <rect x="72" y="194" width="348" height="634" rx="28" fill="rgba(255,255,255,0.04)" stroke="rgba(255,255,255,0.06)"/>
  <rect x="456" y="194" width="734" height="634" rx="28" fill="rgba(9,16,32,0.82)" stroke="rgba(255,255,255,0.06)"/>
  <rect x="1226" y="194" width="302" height="634" rx="28" fill="rgba(255,255,255,0.04)" stroke="rgba(255,255,255,0.06)"/>
  <rect x="102" y="228" width="288" height="54" rx="18" fill="rgba(255,255,255,0.05)"/>
  <text x="128" y="263" fill="#9AA7BF" font-family="Arial, sans-serif" font-size="18">Երգերի ցանկ</text>
  <g fill="rgba(255,255,255,0.04)" stroke="rgba(255,255,255,0.05)">
    <rect x="102" y="312" width="288" height="112" rx="22"/>
    <rect x="102" y="442" width="288" height="112" rx="22"/>
    <rect x="102" y="572" width="288" height="112" rx="22"/>
  </g>
  <text x="490" y="250" fill="#EEF3FF" font-family="Arial, sans-serif" font-size="34" font-weight="700">Խմբագրիչ</text>
  <rect x="490" y="286" width="316" height="58" rx="20" fill="rgba(255,255,255,0.05)"/>
  <rect x="824" y="286" width="316" height="58" rx="20" fill="rgba(255,255,255,0.05)"/>
  <rect x="490" y="376" width="650" height="122" rx="22" fill="rgba(255,255,255,0.05)"/>
  <rect x="490" y="526" width="650" height="238" rx="24" fill="rgba(255,255,255,0.05)"/>
  <text x="1256" y="250" fill="#EEF3FF" font-family="Arial, sans-serif" font-size="30" font-weight="700">Գործողություններ</text>
  <rect x="1256" y="286" width="198" height="54" rx="20" fill="#6B7CFF"/>
  <rect x="1256" y="356" width="198" height="54" rx="20" fill="rgba(255,255,255,0.06)"/>
  <rect x="1256" y="426" width="198" height="54" rx="20" fill="rgba(255,255,255,0.06)"/>
  <defs>
    <linearGradient id="bg" x1="800" y1="36" x2="800" y2="864" gradientUnits="userSpaceOnUse">
      <stop stop-color="#101833"/>
      <stop offset="1" stop-color="#08101D"/>
    </linearGradient>
  </defs>
</svg>
