<svg xmlns="http://www.w3.org/2000/svg" width="1600" height="900" viewBox="0 0 1600 900" fill="none">
  <rect width="1600" height="900" fill="#070910"/>
  <rect x="36" y="36" width="1528" height="828" rx="34" fill="url(#bg)"/>
  <rect x="72" y="72" width="1456" height="86" rx="24" fill="rgba(255,255,255,0.05)" stroke="rgba(255,255,255,0.08)"/>
  <text x="116" y="126" fill="#EEF3FF" font-family="Arial, sans-serif" font-size="34" font-weight="700">Worship Platform</text>
  <rect x="72" y="194" width="430" height="634" rx="28" fill="rgba(255,255,255,0.04)" stroke="rgba(255,255,255,0.06)"/>
  <rect x="540" y="194" width="988" height="634" rx="28" fill="rgba(9,16,32,0.78)" stroke="rgba(255,255,255,0.06)"/>
  <rect x="104" y="230" width="366" height="58" rx="20" fill="rgba(255,255,255,0.05)"/>
  <text x="132" y="267" fill="#9AA7BF" font-family="Arial, sans-serif" font-size="20">Որոնել երգ</text>
  <g fill="rgba(255,255,255,0.04)" stroke="rgba(255,255,255,0.05)">
    <rect x="104" y="320" width="366" height="120" rx="24"/>
    <rect x="104" y="458" width="366" height="120" rx="24"/>
    <rect x="104" y="596" width="366" height="120" rx="24"/>
  </g>
  <text x="136" y="366" fill="#EEF3FF" font-family="Arial, sans-serif" font-size="24" font-weight="700">Տերն է իմ լույսն ու փրկությունը</text>
  <text x="136" y="401" fill="#9AA7BF" font-family="Arial, sans-serif" font-size="18">F • worship</text>
  <text x="578" y="258" fill="#EEF3FF" font-family="Arial, sans-serif" font-size="38" font-weight="700">Տերն է իմ լույսն ու փրկությունը</text>
  <text x="578" y="298" fill="#9AA7BF" font-family="Arial, sans-serif" font-size="20">Երգի դիտում • transpose • պահպանում • setlist</text>
  <rect x="578" y="338" width="154" height="50" rx="20" fill="#6B7CFF"/>
  <rect x="748" y="338" width="154" height="50" rx="20" fill="rgba(255,255,255,0.06)"/>
  <rect x="918" y="338" width="184" height="50" rx="20" fill="rgba(255,255,255,0.06)"/>
  <g font-family="Arial, sans-serif" fill="#EEF3FF" font-size="28">
    <text x="578" y="470">C           G/B         Am         F</text>
    <text x="578" y="536">Տերն է իմ լույսն ու փրկությունը,</text>
    <text x="578" y="590">Ո՞ւմից պիտի ես վախենամ հիմա։</text>
    <text x="578" y="670">C           G/B         Am         F</text>
    <text x="578" y="736">Նա է իմ ապավենը հավիտյան,</text>
  </g>
  <rect x="1220" y="338" width="266" height="420" rx="24" fill="rgba(255,255,255,0.04)" stroke="rgba(255,255,255,0.06)"/>
  <text x="1252" y="386" fill="#EEF3FF" font-family="Arial, sans-serif" font-size="24" font-weight="700">Գործողություններ</text>
  <rect x="1252" y="418" width="202" height="52" rx="20" fill="#6B7CFF"/>
  <rect x="1252" y="486" width="202" height="52" rx="20" fill="rgba(255,255,255,0.06)"/>
  <rect x="1252" y="554" width="202" height="52" rx="20" fill="rgba(255,255,255,0.06)"/>
  <defs>
    <linearGradient id="bg" x1="800" y1="36" x2="800" y2="864" gradientUnits="userSpaceOnUse">
      <stop stop-color="#101833"/>
      <stop offset="1" stop-color="#080C18"/>
    </linearGradient>
  </defs>
</svg>
