<svg xmlns="http://www.w3.org/2000/svg" width="1242" height="2688" viewBox="0 0 1242 2688" fill="none">
  <rect width="1242" height="2688" fill="#05070D"/>
  <rect x="44" y="44" width="1154" height="2600" rx="56" fill="url(#bg)"/>
  <rect x="92" y="110" width="1058" height="124" rx="34" fill="rgba(255,255,255,0.06)" stroke="rgba(255,255,255,0.08)"/>
  <circle cx="154" cy="172" r="26" fill="#6B7CFF"/>
  <rect x="206" y="144" width="258" height="22" rx="11" fill="#EEF3FF"/>
  <rect x="206" y="180" width="188" height="16" rx="8" fill="#98A6C5"/>
  <rect x="92" y="274" width="1058" height="154" rx="38" fill="rgba(255,255,255,0.04)" stroke="rgba(255,255,255,0.07)"/>
  <rect x="132" y="318" width="420" height="22" rx="11" fill="#EEF3FF"/>
  <rect x="132" y="356" width="284" height="16" rx="8" fill="#98A6C5"/>
  <rect x="858" y="310" width="252" height="46" rx="23" fill="#6B7CFF"/>
  <text x="984" y="340" text-anchor="middle" fill="white" font-family="Arial, sans-serif" font-size="24" font-weight="700">Նոր երգեր</text>
  <g>
    <rect x="92" y="476" width="1058" height="1740" rx="42" fill="rgba(9,16,32,0.76)" stroke="rgba(255,255,255,0.07)"/>
    <rect x="132" y="526" width="976" height="84" rx="28" fill="rgba(255,255,255,0.05)"/>
    <text x="180" y="578" fill="#9AA7BF" font-family="Arial, sans-serif" font-size="28">Որոնել անվանում, կատարող, ակորդներ...</text>
    <g fill="rgba(255,255,255,0.04)" stroke="rgba(255,255,255,0.05)">
      <rect x="132" y="662" width="976" height="204" rx="30"/>
      <rect x="132" y="894" width="976" height="204" rx="30"/>
      <rect x="132" y="1126" width="976" height="204" rx="30"/>
      <rect x="132" y="1358" width="976" height="204" rx="30"/>
      <rect x="132" y="1590" width="976" height="204" rx="30"/>
      <rect x="132" y="1822" width="976" height="204" rx="30"/>
    </g>
    <g font-family="Arial, sans-serif">
      <text x="176" y="732" fill="#EEF3FF" font-size="36" font-weight="700">Քեզ եմ ուզում ես ճանաչել Տեր</text>
      <text x="176" y="778" fill="#9AA7BF" font-size="24">Կատարող նշված չէ</text>
      <rect x="176" y="806" width="172" height="38" rx="19" fill="#3A4E7A"/>
      <text x="262" y="831" text-anchor="middle" fill="#F6C87A" font-size="20" font-weight="700">Բարձր նշում</text>
      <rect x="950" y="710" width="112" height="52" rx="20" fill="#6B7CFF"/>
      <text x="1006" y="743" text-anchor="middle" fill="white" font-size="22" font-weight="700">Բացել</text>

      <text x="176" y="964" fill="#EEF3FF" font-size="36" font-weight="700">Երբ իմ հոգին</text>
      <text x="176" y="1010" fill="#9AA7BF" font-size="24">Կատարող նշված չէ</text>
      <rect x="950" y="942" width="112" height="52" rx="20" fill="#6B7CFF"/>
      <text x="1006" y="975" text-anchor="middle" fill="white" font-size="22" font-weight="700">Բացել</text>
    </g>
  </g>
  <rect x="160" y="2308" width="922" height="194" rx="42" fill="rgba(10,16,32,0.88)" stroke="rgba(255,255,255,0.08)"/>
  <rect x="206" y="2362" width="220" height="88" rx="28" fill="#6B7CFF"/>
  <rect x="456" y="2362" width="160" height="88" rx="28" fill="rgba(255,255,255,0.06)"/>
  <rect x="646" y="2362" width="186" height="88" rx="28" fill="rgba(255,255,255,0.06)"/>
  <rect x="862" y="2362" width="174" height="88" rx="28" fill="rgba(255,255,255,0.06)"/>
  <defs>
    <linearGradient id="bg" x1="621" y1="44" x2="621" y2="2644" gradientUnits="userSpaceOnUse">
      <stop stop-color="#101833"/>
      <stop offset="1" stop-color="#080C18"/>
    </linearGradient>
  </defs>
</svg>
